<svg width="24" height="24" viewBox="0 0 24 24" fill="none" xmlns="http://www.w3.org/2000/svg">
<path d="M16.5 8.62999C16.09 8.62999 15.75 8.28999 15.75 7.87999V6.49999C15.75 5.44999 15.3 4.42999 14.52 3.71999C13.73 2.99999 12.71 2.66999 11.63 2.76999C9.83 2.93999 8.25 4.77999 8.25 6.69999V7.66999C8.25 8.07999 7.91 8.41999 7.5 8.41999C7.09 8.41999 6.75 8.07999 6.75 7.66999V6.68999C6.75 3.99999 8.92 1.51999 11.49 1.26999C12.99 1.12999 14.43 1.59999 15.53 2.60999C16.0712 3.1033 16.5037 3.704 16.7999 4.37377C17.096 5.04354 17.2493 5.76767 17.25 6.49999V7.87999C17.25 8.28999 16.91 8.62999 16.5 8.62999Z" fill="white" fill-opacity="0.75"/>
<path d="M15 22.75H9C4.38 22.75 3.52 20.6 3.3 18.51L2.55 12.52C2.44 11.44 2.4 9.89 3.45 8.73C4.35 7.73 5.84 7.25 8 7.25H16C18.17 7.25 19.66 7.74 20.55 8.73C21.59 9.89 21.56 11.44 21.45 12.5L20.7 18.51C20.48 20.6 19.62 22.75 15 22.75ZM8 8.75C6.31 8.75 5.15 9.08 4.56 9.74C4.07 10.28 3.91 11.11 4.04 12.35L4.79 18.34C4.96 19.94 5.4 21.26 9 21.26H15C18.6 21.26 19.04 19.95 19.21 18.36L19.96 12.35C20.09 11.13 19.93 10.3 19.44 9.75C18.85 9.08 17.69 8.75 16 8.75H8Z" fill="white" fill-opacity="0.75"/>
<path d="M15.42 13.148C14.86 13.148 14.41 12.698 14.41 12.148C14.41 11.598 14.86 11.148 15.41 11.148C15.96 11.148 16.41 11.598 16.41 12.148C16.41 12.698 15.97 13.148 15.42 13.148ZM8.41997 13.148C7.85997 13.148 7.40997 12.698 7.40997 12.148C7.40997 11.598 7.85997 11.148 8.40997 11.148C8.95997 11.148 9.40997 11.598 9.40997 12.148C9.40997 12.698 8.96997 13.148 8.41997 13.148Z" fill="white" fill-opacity="0.75"/>
</svg>
