<svg width="19" height="22" viewBox="0 0 19 22" fill="none" xmlns="http://www.w3.org/2000/svg">
<path d="M9.34 11.5C6.17 11.5 3.59 8.92 3.59 5.75C3.59 2.58 6.17 0 9.34 0C12.51 0 15.09 2.58 15.09 5.75C15.09 8.92 12.51 11.5 9.34 11.5ZM9.34 1.5C8.21364 1.50264 7.13417 1.95126 6.33771 2.74771C5.54126 3.54417 5.09264 4.62364 5.09 5.75C5.09264 6.87636 5.54126 7.95583 6.33771 8.75229C7.13417 9.54875 8.21364 9.99736 9.34 10C10.4664 9.99736 11.5458 9.54875 12.3423 8.75229C13.1387 7.95583 13.5874 6.87636 13.59 5.75C13.5874 4.62364 13.1387 3.54417 12.3423 2.74771C11.5458 1.95126 10.4664 1.50264 9.34 1.5ZM17.93 21.5C17.52 21.5 17.18 21.16 17.18 20.75C17.18 17.3 13.66 14.5 9.34 14.5C5.02 14.5 1.5 17.3 1.5 20.75C1.5 21.16 1.16 21.5 0.75 21.5C0.34 21.5 0 21.16 0 20.75C0 16.48 4.19 13 9.34 13C14.49 13 18.68 16.48 18.68 20.75C18.68 21.16 18.34 21.5 17.93 21.5Z" fill="white" fill-opacity="0.75"/>
</svg>
