<svg width="109" height="32" viewBox="0 0 109 32" fill="none" xmlns="http://www.w3.org/2000/svg">
<path d="M48.66 15.96C48.66 14.5733 48.96 13.34 49.56 12.26C50.16 11.1667 50.9933 10.32 52.06 9.72C53.14 9.10667 54.36 8.8 55.72 8.8C57.3867 8.8 58.8133 9.24 60 10.12C61.1867 11 61.98 12.2 62.38 13.72H58.62C58.34 13.1333 57.94 12.6867 57.42 12.38C56.9133 12.0733 56.3333 11.92 55.68 11.92C54.6267 11.92 53.7733 12.2867 53.12 13.02C52.4667 13.7533 52.14 14.7333 52.14 15.96C52.14 17.1867 52.4667 18.1667 53.12 18.9C53.7733 19.6333 54.6267 20 55.68 20C56.3333 20 56.9133 19.8467 57.42 19.54C57.94 19.2333 58.34 18.7867 58.62 18.2H62.38C61.98 19.72 61.1867 20.92 60 21.8C58.8133 22.6667 57.3867 23.1 55.72 23.1C54.36 23.1 53.14 22.8 52.06 22.2C50.9933 21.5867 50.16 20.74 49.56 19.66C48.96 18.58 48.66 17.3467 48.66 15.96ZM66.1944 10.68C65.5944 10.68 65.101 10.5067 64.7144 10.16C64.341 9.8 64.1544 9.36 64.1544 8.84C64.1544 8.30667 64.341 7.86667 64.7144 7.52C65.101 7.16 65.5944 6.98 66.1944 6.98C66.781 6.98 67.261 7.16 67.6344 7.52C68.021 7.86667 68.2144 8.30667 68.2144 8.84C68.2144 9.36 68.021 9.8 67.6344 10.16C67.261 10.5067 66.781 10.68 66.1944 10.68ZM67.8944 11.84V23H64.4744V11.84H67.8944ZM73.7928 13.7C74.1928 13.0867 74.6928 12.6067 75.2928 12.26C75.8928 11.9 76.5595 11.72 77.2928 11.72V15.34H76.3528C75.4995 15.34 74.8595 15.5267 74.4328 15.9C74.0061 16.26 73.7928 16.9 73.7928 17.82V23H70.3728V11.84H73.7928V13.7ZM78.2475 17.42C78.2475 16.26 78.4808 15.2467 78.9475 14.38C79.4275 13.5133 80.0875 12.8467 80.9275 12.38C81.7808 11.9133 82.7542 11.68 83.8475 11.68C85.2475 11.68 86.4142 12.0467 87.3475 12.78C88.2942 13.5133 88.9142 14.5467 89.2075 15.88H85.5675C85.2608 15.0267 84.6675 14.6 83.7875 14.6C83.1608 14.6 82.6608 14.8467 82.2875 15.34C81.9142 15.82 81.7275 16.5133 81.7275 17.42C81.7275 18.3267 81.9142 19.0267 82.2875 19.52C82.6608 20 83.1608 20.24 83.7875 20.24C84.6675 20.24 85.2608 19.8133 85.5675 18.96H89.2075C88.9142 20.2667 88.2942 21.2933 87.3475 22.04C86.4008 22.7867 85.2342 23.16 83.8475 23.16C82.7542 23.16 81.7808 22.9267 80.9275 22.46C80.0875 21.9933 79.4275 21.3267 78.9475 20.46C78.4808 19.5933 78.2475 18.58 78.2475 17.42ZM94.4569 8.2V23H91.0369V8.2H94.4569ZM107.455 17.24C107.455 17.56 107.435 17.8933 107.395 18.24H99.6553C99.7086 18.9333 99.9286 19.4667 100.315 19.84C100.715 20.2 101.202 20.38 101.775 20.38C102.629 20.38 103.222 20.02 103.555 19.3H107.195C107.009 20.0333 106.669 20.6933 106.175 21.28C105.695 21.8667 105.089 22.3267 104.355 22.66C103.622 22.9933 102.802 23.16 101.895 23.16C100.802 23.16 99.8286 22.9267 98.9753 22.46C98.122 21.9933 97.4553 21.3267 96.9753 20.46C96.4953 19.5933 96.2553 18.58 96.2553 17.42C96.2553 16.26 96.4886 15.2467 96.9553 14.38C97.4353 13.5133 98.102 12.8467 98.9553 12.38C99.8086 11.9133 100.789 11.68 101.895 11.68C102.975 11.68 103.935 11.9067 104.775 12.36C105.615 12.8133 106.269 13.46 106.735 14.3C107.215 15.14 107.455 16.12 107.455 17.24ZM103.955 16.34C103.955 15.7533 103.755 15.2867 103.355 14.94C102.955 14.5933 102.455 14.42 101.855 14.42C101.282 14.42 100.795 14.5867 100.395 14.92C100.009 15.2533 99.7686 15.7267 99.6753 16.34H103.955Z" fill="white"/>
<circle cx="16" cy="16" r="12.5" stroke="white" stroke-width="7"/>
</svg>
